REM DIRINDEX 1\2,1\3,1\4,1\5
REM DIRNAME cjc004,folder01,folder02,folder03,folder04
TITLE ""
FILE "1Q_t_2041-2050.mp3" MP3
  TRACK 01 AUDIO
    TITLE "3:cjc004_7031"
    INDEX 01 00:00:00
  TRACK 02 AUDIO
    TITLE "0:"
    INDEX 01 00:01:22
  TRACK 03 AUDIO
    TITLE "4:cjc004_7032"
    INDEX 01 00:01:50
  TRACK 04 AUDIO
    TITLE "0:"
    INDEX 01 00:02:69
  TRACK 05 AUDIO
    TITLE "5:cjc004_7033"
    INDEX 01 00:03:17
  TRACK 06 AUDIO
    TITLE "0:"
    INDEX 01 00:07:74
  TRACK 07 AUDIO
    TITLE "3:cjc004_7034"
    INDEX 01 00:08:52
  TRACK 08 AUDIO
    TITLE "0:"
    INDEX 01 00:09:69
  TRACK 09 AUDIO
    TITLE "4:cjc004_7035"
    INDEX 01 00:10:21
  TRACK 10 AUDIO
    TITLE "0:"
    INDEX 01 00:11:46
  TRACK 11 AUDIO
    TITLE "5:cjc004_7036"
    INDEX 01 00:11:66
  TRACK 12 AUDIO
    TITLE "0:"
    INDEX 01 00:15:13
  TRACK 13 AUDIO
    TITLE "3:cjc004_7037"
    INDEX 01 00:15:68
  TRACK 14 AUDIO
    TITLE "0:"
    INDEX 01 00:17:02
  TRACK 15 AUDIO
    TITLE "4:cjc004_7038"
    INDEX 01 00:17:29
  TRACK 16 AUDIO
    TITLE "0:"
    INDEX 01 00:19:03
  TRACK 17 AUDIO
    TITLE "5:cjc004_7039"
    INDEX 01 00:19:26
  TRACK 18 AUDIO
    TITLE "0:"
    INDEX 01 00:23:30
  TRACK 19 AUDIO
    TITLE "3:cjc004_7040"
    INDEX 01 00:24:04
  TRACK 20 AUDIO
    TITLE "0:"
    INDEX 01 00:25:37
  TRACK 21 AUDIO
    TITLE "4:cjc004_7041"
    INDEX 01 00:25:64
  TRACK 22 AUDIO
    TITLE "0:"
    INDEX 01 00:27:18
  TRACK 23 AUDIO
    TITLE "5:cjc004_7042"
    INDEX 01 00:27:39
  TRACK 24 AUDIO
    TITLE "0:"
    INDEX 01 00:32:45
  TRACK 25 AUDIO
    TITLE "3:cjc004_7043"
    INDEX 01 00:33:19
  TRACK 26 AUDIO
    TITLE "0:"
    INDEX 01 00:34:36
  TRACK 27 AUDIO
    TITLE "4:cjc004_7044"
    INDEX 01 00:34:67
  TRACK 28 AUDIO
    TITLE "0:"
    INDEX 01 00:36:29
  TRACK 29 AUDIO
    TITLE "5:cjc004_7045"
    INDEX 01 00:36:52
  TRACK 30 AUDIO
    TITLE "0:"
    INDEX 01 00:40:66
  TRACK 31 AUDIO
    TITLE "3:cjc004_7046"
    INDEX 01 00:41:45
  TRACK 32 AUDIO
    TITLE "0:"
    INDEX 01 00:42:45
  TRACK 33 AUDIO
    TITLE "4:cjc004_7047"
    INDEX 01 00:43:01
  TRACK 34 AUDIO
    TITLE "0:"
    INDEX 01 00:44:12
  TRACK 35 AUDIO
    TITLE "5:cjc004_7048"
    INDEX 01 00:44:38
  TRACK 36 AUDIO
    TITLE "0:"
    INDEX 01 00:49:10
  TRACK 37 AUDIO
    TITLE "3:cjc004_7049"
    INDEX 01 00:49:67
  TRACK 38 AUDIO
    TITLE "0:"
    INDEX 01 00:51:18
  TRACK 39 AUDIO
    TITLE "4:cjc004_7050"
    INDEX 01 00:51:48
  TRACK 40 AUDIO
    TITLE "0:"
    INDEX 01 00:53:08
  TRACK 41 AUDIO
    TITLE "5:cjc004_7051"
    INDEX 01 00:53:33
  TRACK 42 AUDIO
    TITLE "0:"
    INDEX 01 00:58:34
  TRACK 43 AUDIO
    TITLE "3:cjc004_7052"
    INDEX 01 00:59:08
  TRACK 44 AUDIO
    TITLE "0:"
    INDEX 01 01:00:17
  TRACK 45 AUDIO
    TITLE "4:cjc004_7053"
    INDEX 01 01:00:49
  TRACK 46 AUDIO
    TITLE "0:"
    INDEX 01 01:01:60
  TRACK 47 AUDIO
    TITLE "5:cjc004_7054"
    INDEX 01 01:02:03
  TRACK 48 AUDIO
    TITLE "0:"
    INDEX 01 01:05:54
  TRACK 49 AUDIO
    TITLE "3:cjc004_7055"
    INDEX 01 01:06:30
  TRACK 50 AUDIO
    TITLE "0:"
    INDEX 01 01:08:01
  TRACK 51 AUDIO
    TITLE "4:cjc004_7056"
    INDEX 01 01:08:29
  TRACK 52 AUDIO
    TITLE "0:"
    INDEX 01 01:10:18
  TRACK 53 AUDIO
    TITLE "5:cjc004_7057"
    INDEX 01 01:10:49
  TRACK 54 AUDIO
    TITLE "0:"
    INDEX 01 01:15:42
  TRACK 55 AUDIO
    TITLE "3:cjc004_7058"
    INDEX 01 01:16:18
  TRACK 56 AUDIO
    TITLE "0:"
    INDEX 01 01:17:18
  TRACK 57 AUDIO
    TITLE "4:cjc004_7059"
    INDEX 01 01:17:43
  TRACK 58 AUDIO
    TITLE "0:"
    INDEX 01 01:18:68
  TRACK 59 AUDIO
    TITLE "5:cjc004_7060"
    INDEX 01 01:19:13
  TRACK 60 AUDIO
    TITLE "0:"
    INDEX 01 01:23:69
